<svg width="46" height="46" viewBox="0 0 46 46" fill="none" xmlns="http://www.w3.org/2000/svg">
<path d="M3.8335 23C3.8335 13.9647 3.8335 9.4471 6.6404 6.64021C9.44728 3.83331 13.9649 3.83331 23.0002 3.83331C32.0353 3.83331 36.5531 3.83331 39.3599 6.64021C42.1668 9.4471 42.1668 13.9647 42.1668 23C42.1668 32.0351 42.1668 36.5529 39.3599 39.3597C36.5531 42.1666 32.0353 42.1666 23.0002 42.1666C13.9649 42.1666 9.44728 42.1666 6.6404 39.3597C3.8335 36.5529 3.8335 32.0351 3.8335 23Z" stroke="#1C274C" stroke-width="1.5"/>
<path d="M11.5 20.9769C11.5 16.891 11.5 14.8481 11.9824 14.1609C12.4648 13.4736 14.3856 12.8161 18.2274 11.501L18.9593 11.2505C20.9619 10.565 21.9632 10.2222 23 10.2222C24.0368 10.2222 25.0381 10.565 27.0407 11.2505L27.7726 11.501C31.6144 12.8161 33.5353 13.4736 34.0176 14.1609C34.5 14.8481 34.5 16.891 34.5 20.9769C34.5 21.5939 34.5 22.2632 34.5 22.989C34.5 30.1931 29.0835 33.6893 25.6851 35.1738C24.7633 35.5764 24.3024 35.7778 23 35.7778C21.6976 35.7778 21.2367 35.5764 20.3148 35.1738C16.9164 33.6893 11.5 30.1931 11.5 22.989C11.5 22.2632 11.5 21.5939 11.5 20.9769Z" stroke="#1C274C" stroke-width="1.5"/>
<path d="M19.8057 23.5111L21.6311 25.5556L26.1946 20.4445" stroke="#1C274C" stroke-width="1.5" stroke-linecap="round" stroke-linejoin="round"/>
</svg>
