<svg width="46" height="46" viewBox="0 0 46 46" fill="none" xmlns="http://www.w3.org/2000/svg">
<path d="M3.83325 22C3.83325 12.9647 3.83325 8.4471 6.64015 5.64021C9.44703 2.83331 13.9647 2.83331 22.9999 2.83331C32.0351 2.83331 36.5529 2.83331 39.3596 5.64021C42.1666 8.4471 42.1666 12.9647 42.1666 22C42.1666 31.0351 42.1666 35.5529 39.3596 38.3597C36.5529 41.1666 32.0351 41.1666 22.9999 41.1666C13.9647 41.1666 9.44703 41.1666 6.64015 38.3597C3.83325 35.5529 3.83325 31.0351 3.83325 22Z" stroke="#1C274C" stroke-width="1.5"/>
<path d="M14.0557 34.7778V24.5556M14.0557 24.5556V11.7778M14.0557 24.5556L17.2126 23.9242C19.3216 23.5024 21.5078 23.703 23.5047 24.5019C25.6687 25.3675 28.0504 25.5291 30.3116 24.9638L30.5855 24.8953C31.3842 24.6956 31.9446 23.978 31.9446 23.1547V13.7413C31.9446 12.744 31.0073 12.0121 30.0396 12.254C27.9553 12.7751 25.7597 12.6261 23.765 11.8282L23.5047 11.7241C21.5078 10.9253 19.3216 10.7246 17.2126 11.1464L14.0557 11.7778M14.0557 11.7778V9.22223" stroke="#1C274C" stroke-width="1.5" stroke-linecap="round"/>
</svg>
