<svg width="46" height="46" viewBox="0 0 46 46" fill="none" xmlns="http://www.w3.org/2000/svg">
<path d="M3.83325 23C3.83325 13.9647 3.83325 9.4471 6.64015 6.64021C9.44703 3.83331 13.9647 3.83331 22.9999 3.83331C32.0351 3.83331 36.5529 3.83331 39.3596 6.64021C42.1666 9.4471 42.1666 13.9647 42.1666 23C42.1666 32.0351 42.1666 36.5529 39.3596 39.3597C36.5529 42.1666 32.0351 42.1666 22.9999 42.1666C13.9647 42.1666 9.44703 42.1666 6.64015 39.3597C3.83325 36.5529 3.83325 32.0351 3.83325 23Z" stroke="#1C274C" stroke-width="1.5"/>
<path d="M10.2224 28.1111C10.2224 24.4971 10.2224 22.69 11.3452 21.5672C12.4679 20.4445 14.275 20.4445 17.8891 20.4445H28.1113C31.7254 20.4445 33.5324 20.4445 34.6552 21.5672C35.778 22.69 35.778 24.4971 35.778 28.1111C35.778 31.7252 35.778 33.5322 34.6552 34.655C33.5324 35.7778 31.7254 35.7778 28.1113 35.7778H17.8891C14.275 35.7778 12.4679 35.7778 11.3452 34.655C10.2224 33.5322 10.2224 31.7252 10.2224 28.1111Z" stroke="#1C274C" stroke-width="1.5"/>
<path d="M23.0001 30.6667C24.4115 30.6667 25.5557 29.5225 25.5557 28.1111C25.5557 26.6997 24.4115 25.5555 23.0001 25.5555C21.5887 25.5555 20.4446 26.6997 20.4446 28.1111C20.4446 29.5225 21.5887 30.6667 23.0001 30.6667Z" stroke="#1C274C" stroke-width="1.5"/>
<path d="M15.3335 20.4445V17.8889C15.3335 13.6547 18.766 10.2222 23.0002 10.2222C27.2343 10.2222 30.6668 13.6547 30.6668 17.8889V20.4445" stroke="#1C274C" stroke-width="1.5" stroke-linecap="round"/>
</svg>
